<?xml version="1.0" encoding="UTF-8" standalone="no"?>
<!-- Created with Inkscape (http://www.inkscape.org/) -->

<svg
   width="1000"
   height="1000"
   viewBox="0 0 264.58333 264.58333"
   version="1.1"
   id="svg5"
   sodipodi:docname="logo.svg"
   xml:space="preserve"
   inkscape:version="1.2.2 (b0a84865, 2022-12-01)"
   inkscape:export-filename="logo.png"
   inkscape:export-xdpi="50"
   inkscape:export-ydpi="50"
   xmlns:inkscape="http://www.inkscape.org/namespaces/inkscape"
   xmlns:sodipodi="http://sodipodi.sourceforge.net/DTD/sodipodi-0.dtd"
   xmlns="http://www.w3.org/2000/svg"
   xmlns:svg="http://www.w3.org/2000/svg"><sodipodi:namedview
     id="namedview7"
     pagecolor="#ffffff"
     bordercolor="#969696"
     borderopacity="1"
     inkscape:showpageshadow="false"
     inkscape:pageopacity="0"
     inkscape:pagecheckerboard="false"
     inkscape:deskcolor="#c8c8c8"
     inkscape:document-units="px"
     showgrid="false"
     inkscape:zoom="0.25"
     inkscape:cx="738"
     inkscape:cy="-368"
     inkscape:window-width="1390"
     inkscape:window-height="956"
     inkscape:window-x="0"
     inkscape:window-y="244"
     inkscape:window-maximized="0"
     inkscape:current-layer="layer1"
     showborder="false"
     borderlayer="false" /><defs
     id="defs2"><clipPath
       id="clipPath8922"><rect
         style="fill:none;fill-opacity:1;stroke:#000000;stroke-width:1.1;stroke-linecap:round;stroke-linejoin:round;stroke-opacity:1"
         width="74.618484"
         height="45.139576"
         x="64.66935"
         y="78.856079"
         id="rect3238" /></clipPath></defs><g
     inkscape:label="Layer 1"
     inkscape:groupmode="layer"
     id="layer1"><g
       id="g1002"><circle
         style="fill:#ffffff;fill-opacity:1;stroke-width:4.09238;stroke-linecap:round;stroke-linejoin:round"
         id="path234"
         cx="132.29167"
         cy="132.29167"
         r="132.29167"
         inkscape:export-filename="favicon.png"
         inkscape:export-xdpi="150"
         inkscape:export-ydpi="150" /><g
         id="g996"><path
           style="fill:none;fill-opacity:1;stroke:#000000;stroke-width:9.30087;stroke-linecap:round;stroke-linejoin:round;stroke-dasharray:none;stroke-opacity:1"
           d="m 28.882233,192.97086 c 0.970115,-0.41962 1.93988,-1.30626 2.909994,-2.62869 0.970115,-1.30638 1.940226,-3.06423 2.909991,-5.22526 0.970115,-2.16111 1.940226,-4.70916 2.909994,-7.61204 0.970115,-2.91904 1.94023,-6.17678 2.909994,-9.70859 0.970115,-3.54805 1.94023,-7.37017 2.910341,-11.38588 0.969768,-4.03179 1.939883,-8.27326 2.909994,-12.62763 0.969769,-4.33826 1.939883,-8.82159 2.909998,-13.32112 0.969765,-4.4995 1.93988,-9.01515 2.909994,-13.4824 0.970111,-4.46717 1.939876,-8.85387 2.909991,-13.09533 0.970115,-4.24946 1.93988,-8.339323 2.909994,-12.190536 0.970115,-3.851216 1.93988,-7.465335 2.909994,-10.768172 0.970115,-3.304471 1.940226,-6.294475 2.909995,-8.915123 0.970114,-2.620692 1.940229,-4.86721 2.909994,-6.697656 0.970115,-1.82885 1.940229,-3.239952 2.909994,-4.206 0.970115,-0.964416 1.94023,-1.482106 2.910341,-1.543317 0.969768,-0.06131 1.939883,0.335501 2.909998,1.180493 0.969761,0.845052 1.939876,2.140053 2.90999,3.857623 0.969765,1.717526 1.93988,3.859253 2.909995,6.378332 0.970114,2.519037 1.939879,5.418734 2.909994,8.636118 0.970114,3.219018 1.939879,6.758949 2.909994,10.545607 0.970115,3.786694 1.93988,7.821748 2.909994,12.022891 0.970115,4.19947 1.94023,8.57001 2.909995,13.00499 0.970114,4.45113 1.940229,8.9667 2.90999,13.46623 0.970115,4.51569 1.94023,8.99902 2.909995,13.3856 0.970114,4.37054 1.940229,8.6604 2.910339,12.7405 0.96977,4.08023 1.93988,7.96695 2.90999,11.5794 0.96978,3.61253 1.94161,6.95087 2.91,9.95058 0.9684,2.9996 1.94022,5.66061 2.90862,7.91839 0.97186,2.25786 1.94022,4.12866 2.91208,5.56396 0.9684,1.4353 1.94023,2.43519 2.9086,2.98344 0.97183,0.54818 1.94024,0.62874 2.91211,0.27464 0.96833,-0.37096 1.94019,-1.19343 2.90856,-2.45138 0.96841,-1.25794 1.94028,-2.95128 2.90861,-5.04779 0.97187,-2.11267 1.94024,-4.61244 2.9121,-7.48304 0.96837,-2.85456 1.9402,-6.06387 2.90861,-9.56348 0.97183,-3.49958 1.9402,-7.30569 2.91207,-11.30525 0.96837,-3.99951 1.94023,-8.20873 2.9086,-12.54695 0.97183,-4.3221 1.94024,-8.78931 2.90861,-13.28884 0.97187,-4.48337 1.9402,-9.01518 2.91207,-13.48236 0.96837,-4.48345 1.94023,-8.8861 2.9086,-13.14377 0.97183,-4.27211 1.94024,-8.386084 2.91211,-12.269537 0.96837,-3.883495 1.9402,-7.533076 2.90857,-10.877864 0.97186,-3.344829 1.94023,-6.381557 2.9121,-9.050643 0.96837,-2.669009 1.93674,-4.968784 2.90861,-6.855667 0.96833,-1.88525 1.9402,-3.354457 2.9086,-4.378536 0.97183,-1.02567 1.94024,-1.603061 2.91203,-1.72561 0.96841,-0.122585 1.94028,0.214516 2.90865,0.999919 0.97183,0.783762 1.9402,2.020693 2.91206,3.681822 0.96841,1.661091 1.94024,3.747973 2.90861,6.215469 0.96837,2.469047 1.94024,5.321938 2.90861,8.497412 0.97183,3.175434 1.94023,6.67664 2.91206,10.429506 0.96841,3.752746 1.94024,7.760378 2.90861,11.938959 0.97187,4.18502 1.94024,8.52328 2.9121,12.95825 0.96834,4.43502 1.9402,8.95063 2.90857,13.45012 0.97183,4.51569 1.9402,9.0151 2.90857,13.40176 0.97187,4.40277 1.94028,8.69255 2.91211,12.80502 0.96837,4.09627 1.94023,8.01526 2.9086,11.67611 0.97187,3.64473 1.9402,7.03146 2.91207,10.06342 0.96837,3.04799 1.94024,5.75747 2.90861,8.07974 0.97183,2.30622 1.94023,4.22538 2.9121,5.72512 0.96837,1.48374 1.93674,2.54813 2.90857,3.16095"
           id="path3711" /><path
           style="fill:none;fill-opacity:1;stroke:#000000;stroke-width:9.30087;stroke-linecap:round;stroke-linejoin:round;stroke-dasharray:none;stroke-opacity:1"
           d="m 58.189046,192.97086 c 0.970115,-0.41962 1.93988,-1.30626 2.909994,-2.62869 0.970111,-1.30638 1.940226,-3.06423 2.909995,-5.22526 0.97011,-2.16111 1.940225,-4.70916 2.909994,-7.61204 0.970115,-2.91904 1.940225,-6.17678 2.909994,-9.70859 0.970115,-3.54805 1.940226,-7.37017 2.91034,-11.38588 0.969769,-4.03179 1.93988,-8.27326 2.909995,-12.62763 0.969768,-4.33826 1.939883,-8.82159 2.909994,-13.32112 0.969769,-4.4995 1.939883,-9.01515 2.909994,-13.4824 0.970115,-4.46717 1.93988,-8.85387 2.909991,-13.09533 0.970115,-4.24946 1.939883,-8.339323 2.909998,-12.190536 0.970111,-3.851216 1.939879,-7.465335 2.909994,-10.768172 0.970111,-3.304471 1.940226,-6.294475 2.909994,-8.915123 0.970115,-2.620692 1.940226,-4.86721 2.909995,-6.697656 0.970114,-1.82885 1.940225,-3.239952 2.909994,-4.206 0.970115,-0.964416 1.940228,-1.482106 2.910338,-1.543317 0.96977,-0.06131 1.93989,0.335501 2.90999,1.180493 0.96979,0.845052 1.9399,2.140053 2.91,3.857623 0.96979,1.717526 1.9399,3.859253 2.91001,6.378332 0.97011,2.519037 1.93989,5.418734 2.91,8.636118 0.97012,3.219018 1.9399,6.758949 2.90998,10.545607 0.97012,3.786694 1.93991,7.821748 2.91003,12.022891 0.97011,4.19947 1.94023,8.57001 2.90998,13.00499 0.97012,4.45113 1.94024,8.9667 2.91002,13.46623 0.97012,4.51569 1.94024,8.99902 2.90998,13.3856 0.97012,4.37054 1.94024,8.6604 2.91036,12.7405 0.96978,4.08023 1.9399,7.96695 2.90998,11.5794 0.96975,3.61253 1.94161,6.95087 2.91002,9.95058 0.96837,2.9996 1.9402,5.66061 2.90857,7.91839 0.97187,2.25786 1.94027,4.12866 2.91207,5.56396 0.9684,1.4353 1.94023,2.43519 2.90864,2.98344 0.97187,0.54818 1.9402,0.62874 2.91207,0.27464 0.96837,-0.37096 1.94023,-1.19343 2.9086,-2.45138 0.96837,-1.25794 1.94024,-2.95128 2.90861,-5.04779 0.97183,-2.11267 1.94024,-4.61244 2.91207,-7.48304 0.9684,-2.85456 1.94023,-6.06387 2.9086,-9.56348 0.97187,-3.49958 1.94024,-7.30569 2.91211,-11.30525 0.96833,-3.99951 1.9402,-8.20873 2.9086,-12.54695 0.97183,-4.3221 1.9402,-8.78931 2.90857,-13.28884 0.97187,-4.48337 1.94024,-9.01518 2.91211,-13.48236 0.96837,-4.48345 1.9402,-8.8861 2.9086,-13.14377 0.97187,-4.27211 1.9402,-8.386084 2.91207,-12.269537 0.96837,-3.883495 1.94024,-7.533076 2.90857,-10.877864 0.97187,-3.344829 1.94027,-6.381557 2.9121,-9.050643 0.96841,-2.669009 1.93674,-4.968784 2.90861,-6.855667 0.96841,-1.88525 1.94024,-3.354457 2.90861,-4.378536 0.97183,-1.02567 1.94023,-1.603061 2.9121,-1.72561 0.96833,-0.122585 1.9402,0.214516 2.90857,0.999919 0.97187,0.783762 1.94027,2.020693 2.91207,3.681822 0.9684,1.661091 1.94023,3.747973 2.90864,6.215469 0.96833,2.469047 1.94016,5.321938 2.90857,8.497412 0.97183,3.175434 1.9402,6.67664 2.91207,10.429506 0.96837,3.752746 1.94023,7.760378 2.9086,11.938959 0.97183,4.18502 1.94024,8.52328 2.91207,12.95825 0.96841,4.43502 1.94024,8.95063 2.90861,13.45012 0.97186,4.51569 1.94023,9.0151 2.9086,13.40176 0.97183,4.40277 1.94024,8.69255 2.91211,12.80502 0.96837,4.09627 1.94019,8.01526 2.90856,11.67611 0.97187,3.64473 1.94024,7.03146 2.91211,10.06342 0.96837,3.04799 1.9402,5.75747 2.90861,8.07974 0.97186,2.30622 1.94019,4.22538 2.91206,5.72512 0.96837,1.48374 1.93678,2.54813 2.90857,3.16095"
           id="path3733" /></g></g></g></svg>
