<?xml version="1.0" encoding="UTF-8" standalone="no"?>
<!-- Created with Inkscape (http://www.inkscape.org/) -->

<svg
   width="80mm"
   height="80mm"
   viewBox="0 0 80 80"
   version="1.1"
   id="svg5"
   sodipodi:docname="favicon.svg"
   xml:space="preserve"
   inkscape:version="1.2.2 (b0a84865, 2022-12-01)"
   xmlns:inkscape="http://www.inkscape.org/namespaces/inkscape"
   xmlns:sodipodi="http://sodipodi.sourceforge.net/DTD/sodipodi-0.dtd"
   xmlns="http://www.w3.org/2000/svg"
   xmlns:svg="http://www.w3.org/2000/svg"><sodipodi:namedview
     id="namedview7"
     pagecolor="#ffffff"
     bordercolor="#999999"
     borderopacity="1"
     inkscape:showpageshadow="0"
     inkscape:pageopacity="0"
     inkscape:pagecheckerboard="0"
     inkscape:deskcolor="#d1d1d1"
     inkscape:document-units="mm"
     showgrid="false"
     inkscape:zoom="1.0154442"
     inkscape:cx="66.473372"
     inkscape:cy="164.46005"
     inkscape:window-width="1390"
     inkscape:window-height="956"
     inkscape:window-x="0"
     inkscape:window-y="244"
     inkscape:window-maximized="0"
     inkscape:current-layer="layer1" /><defs
     id="defs2"><clipPath
       id="clipPath8922"><rect
         style="fill:none;fill-opacity:1;stroke:#000000;stroke-width:1.1;stroke-linecap:round;stroke-linejoin:round;stroke-opacity:1"
         width="74.618484"
         height="45.139576"
         x="64.66935"
         y="78.856079"
         id="rect3238" /></clipPath></defs><g
     inkscape:label="Layer 1"
     inkscape:groupmode="layer"
     id="layer1"><circle
       style="fill:#ffffff;fill-opacity:1;stroke-width:1.1;stroke-linecap:round;stroke-linejoin:round"
       id="path234"
       cx="40"
       cy="40"
       r="35.558933"
       inkscape:export-filename="favicon.png"
       inkscape:export-xdpi="150"
       inkscape:export-ydpi="150" /><g
       id="g1189"
       transform="translate(0,0.11741796)"><path
         style="fill:none;fill-opacity:1;stroke:#1e0864;stroke-width:2.5;stroke-linecap:round;stroke-linejoin:round;stroke-dasharray:none;stroke-opacity:1"
         d="m 12.204378,56.192661 c 0.260759,-0.112791 0.521424,-0.351114 0.782183,-0.706571 0.260759,-0.351146 0.521517,-0.823641 0.782182,-1.404508 0.260759,-0.580889 0.521517,-1.265785 0.782183,-2.046055 0.260759,-0.784614 0.521518,-1.660269 0.782183,-2.609592 0.260759,-0.953687 0.521518,-1.981042 0.782276,-3.060433 0.260666,-1.083713 0.521425,-2.223784 0.782183,-3.394205 0.260666,-1.166089 0.521425,-2.371172 0.782184,-3.58061 0.260665,-1.209427 0.521424,-2.423198 0.782183,-3.623959 0.260758,-1.20074 0.521423,-2.379849 0.782182,-3.519919 0.260759,-1.142221 0.521424,-2.241543 0.782183,-3.276718 0.260759,-1.035176 0.521424,-2.006622 0.782183,-2.894398 0.260759,-0.888215 0.521517,-1.691904 0.782183,-2.396313 0.260759,-0.704421 0.521518,-1.308267 0.782183,-1.800276 0.260759,-0.49158 0.521518,-0.870873 0.782183,-1.130539 0.260759,-0.259227 0.521518,-0.398378 0.782276,-0.414831 0.260666,-0.01648 0.521425,0.09018 0.782184,0.317307 0.260664,0.227143 0.521423,0.575229 0.782182,1.036898 0.260665,0.461657 0.521424,1.037336 0.782183,1.714444 0.260759,0.677097 0.521424,1.456512 0.782183,2.321319 0.260759,0.865246 0.521424,1.816751 0.782183,2.834574 0.260759,1.017833 0.521424,2.102423 0.782183,3.231657 0.260759,1.128784 0.521518,2.303549 0.782183,3.495635 0.260759,1.196428 0.521518,2.410177 0.782182,3.619615 0.260759,1.213781 0.521518,2.418865 0.782183,3.597941 0.260759,1.174765 0.521518,2.327845 0.782277,3.424545 0.260665,1.096733 0.521424,2.141451 0.782181,3.112448 0.260669,0.971018 0.521888,1.868337 0.782185,2.674636 0.260297,0.806267 0.521515,1.521525 0.781812,2.128399 0.261229,0.606896 0.521516,1.109752 0.782744,1.495549 0.260299,0.385797 0.521519,0.654557 0.781809,0.801924 0.26122,0.147346 0.52152,0.168999 0.78275,0.07382 0.26028,-0.09971 0.52151,-0.320784 0.7818,-0.65891 0.2603,-0.338126 0.52153,-0.79328 0.78181,-1.356805 0.26123,-0.567869 0.52152,-1.239788 0.78275,-2.011383 0.26029,-0.767282 0.52151,-1.629918 0.78181,-2.570586 0.26122,-0.940657 0.52151,-1.963711 0.78274,-3.038758 0.26029,-1.075037 0.52152,-2.206442 0.78181,-3.37252 0.26122,-1.161746 0.52152,-2.362497 0.78181,-3.571934 0.26123,-1.205094 0.52151,-2.423208 0.78274,-3.623948 0.26029,-1.205116 0.52152,-2.388514 0.78181,-3.532939 0.26122,-1.148309 0.52152,-2.254113 0.78275,-3.297954 0.26029,-1.043852 0.52151,-2.02483 0.7818,-2.923882 0.26123,-0.899063 0.52152,-1.715311 0.78275,-2.43274 0.26029,-0.717408 0.52058,-1.335569 0.78181,-1.842748 0.26028,-0.50674 0.52151,-0.901651 0.78181,-1.176915 0.26122,-0.275692 0.52152,-0.43089 0.78273,-0.46383 0.2603,-0.03295 0.52153,0.05766 0.78182,0.26877 0.26122,0.210669 0.52151,0.543146 0.78274,0.989644 0.2603,0.446488 0.52152,1.007425 0.78181,1.670668 0.26029,0.66366 0.52152,1.430494 0.78181,2.284036 0.26122,0.853531 0.52152,1.794627 0.78274,2.803367 0.2603,1.008708 0.52152,2.085927 0.78181,3.209095 0.26123,1.124901 0.52152,2.290989 0.78275,3.483075 0.26028,1.192096 0.52151,2.405855 0.7818,3.615282 0.26122,1.213781 0.52151,2.423187 0.7818,3.602285 0.26123,1.18343 0.52153,2.336489 0.78275,3.441887 0.26029,1.101044 0.52152,2.154438 0.78181,3.138444 0.26123,0.979673 0.52151,1.890001 0.78274,2.704966 0.26029,0.819275 0.52152,1.547563 0.78181,2.171769 0.26122,0.619894 0.52152,1.135749 0.78275,1.538866 0.26029,0.398817 0.52058,0.684918 0.7818,0.849637"
         id="path3711" /><path
         style="fill:none;fill-opacity:1;stroke:#1e0864;stroke-width:2.5;stroke-linecap:round;stroke-linejoin:round;stroke-dasharray:none;stroke-opacity:1"
         d="m 20.081813,56.192661 c 0.260759,-0.112791 0.521424,-0.351114 0.782183,-0.706571 0.260758,-0.351146 0.521517,-0.823641 0.782183,-1.404508 0.260758,-0.580889 0.521517,-1.265785 0.782183,-2.046055 0.260759,-0.784614 0.521517,-1.660269 0.782183,-2.609592 0.260759,-0.953687 0.521517,-1.981042 0.782276,-3.060433 0.260666,-1.083713 0.521424,-2.223784 0.782183,-3.394205 0.260666,-1.166089 0.521425,-2.371172 0.782183,-3.58061 0.260666,-1.209427 0.521425,-2.423198 0.782183,-3.623959 0.260759,-1.20074 0.521424,-2.379849 0.782182,-3.519919 0.260759,-1.142221 0.521425,-2.241543 0.782184,-3.276718 0.260758,-1.035176 0.521424,-2.006622 0.782183,-2.894398 0.260758,-0.888215 0.521517,-1.691904 0.782183,-2.396313 0.260759,-0.704421 0.521517,-1.308267 0.782183,-1.800276 0.260759,-0.49158 0.521517,-0.870873 0.782183,-1.130539 0.260759,-0.259227 0.521517,-0.398378 0.782276,-0.414831 0.260665,-0.01648 0.521425,0.09018 0.782182,0.317307 0.26067,0.227143 0.521428,0.575229 0.782185,1.036898 0.26067,0.461657 0.521428,1.037336 0.782185,1.714444 0.260758,0.677097 0.521428,1.456512 0.782185,2.321319 0.260761,0.865246 0.521431,1.816751 0.782181,2.834574 0.26076,1.017833 0.52143,2.102423 0.78219,3.231657 0.26076,1.128784 0.52152,2.303549 0.78218,3.495635 0.26076,1.196428 0.52152,2.410177 0.78219,3.619615 0.26076,1.213781 0.52152,2.418865 0.78218,3.597941 0.26076,1.174765 0.52152,2.327845 0.78228,3.424545 0.26067,1.096733 0.52143,2.141451 0.78218,3.112448 0.26066,0.971018 0.52189,1.868337 0.78219,2.674636 0.26029,0.806267 0.52151,1.521525 0.7818,2.128399 0.26123,0.606896 0.52153,1.109752 0.78274,1.495549 0.2603,0.385797 0.52152,0.654557 0.78182,0.801924 0.26123,0.147346 0.52151,0.168999 0.78274,0.07382 0.26029,-0.09971 0.52152,-0.320784 0.78181,-0.65891 0.26029,-0.338126 0.52152,-0.79328 0.78181,-1.356805 0.26122,-0.567869 0.52152,-1.239788 0.78274,-2.011383 0.2603,-0.767282 0.52152,-1.629918 0.78181,-2.570586 0.26123,-0.940657 0.52152,-1.963711 0.78275,-3.038758 0.26028,-1.075037 0.52151,-2.206442 0.78181,-3.37252 0.26122,-1.161746 0.52151,-2.362497 0.7818,-3.571934 0.26123,-1.205094 0.52152,-2.423208 0.78275,-3.623948 0.26029,-1.205116 0.52151,-2.388514 0.78181,-3.532939 0.26123,-1.148309 0.52151,-2.254113 0.78274,-3.297954 0.26029,-1.043852 0.52152,-2.02483 0.7818,-2.923882 0.26123,-0.899063 0.52153,-1.715311 0.78275,-2.43274 0.2603,-0.717408 0.52058,-1.335569 0.78181,-1.842748 0.2603,-0.50674 0.52152,-0.901651 0.78181,-1.176915 0.26122,-0.275692 0.52152,-0.43089 0.78275,-0.46383 0.26028,-0.03295 0.52151,0.05766 0.7818,0.26877 0.26123,0.210669 0.52153,0.543146 0.78274,0.989644 0.2603,0.446488 0.52152,1.007425 0.78182,1.670668 0.26028,0.66366 0.5215,1.430494 0.7818,2.284036 0.26122,0.853531 0.52151,1.794627 0.78274,2.803367 0.26029,1.008708 0.52152,2.085927 0.78181,3.209095 0.26122,1.124901 0.52152,2.290989 0.78274,3.483075 0.2603,1.192096 0.52152,2.405855 0.78181,3.615282 0.26123,1.213781 0.52152,2.423187 0.78181,3.602285 0.26122,1.18343 0.52152,2.336489 0.78275,3.441887 0.26029,1.101044 0.52151,2.154438 0.7818,3.138444 0.26123,0.979673 0.52152,1.890001 0.78275,2.704966 0.26029,0.819275 0.52151,1.547563 0.78181,2.171769 0.26123,0.619894 0.52151,1.135749 0.78274,1.538866 0.26029,0.398817 0.52059,0.684918 0.7818,0.849637"
         id="path3733" /></g></g></svg>
