<?xml version="1.0" encoding="UTF-8" standalone="no"?>
<!-- Created with Inkscape (http://www.inkscape.org/) -->

<svg
   width="210mm"
   height="297mm"
   viewBox="0 0 210 297"
   version="1.1"
   id="svg5"
   inkscape:version="1.2.2 (b0a84865, 2022-12-01)"
   sodipodi:docname="icons.svg"
   xml:space="preserve"
   xmlns:inkscape="http://www.inkscape.org/namespaces/inkscape"
   xmlns:sodipodi="http://sodipodi.sourceforge.net/DTD/sodipodi-0.dtd"
   xmlns="http://www.w3.org/2000/svg"
   xmlns:svg="http://www.w3.org/2000/svg"><sodipodi:namedview
     id="namedview7"
     pagecolor="#ffffff"
     bordercolor="#999999"
     borderopacity="1"
     inkscape:showpageshadow="0"
     inkscape:pageopacity="0"
     inkscape:pagecheckerboard="0"
     inkscape:deskcolor="#d1d1d1"
     inkscape:document-units="mm"
     showgrid="false"
     inkscape:zoom="1.175"
     inkscape:cx="307.65957"
     inkscape:cy="516.59574"
     inkscape:window-width="1920"
     inkscape:window-height="952"
     inkscape:window-x="1512"
     inkscape:window-y="25"
     inkscape:window-maximized="1"
     inkscape:current-layer="layer1" /><defs
     id="defs2"><linearGradient
       x1="500"
       y1="0"
       x2="500"
       y2="992.58337"
       id="linearGradient-1"
       gradientUnits="userSpaceOnUse"
       gradientTransform="matrix(0.04295674,0,0,0.04295674,83.521637,127.02164)"><stop
         stop-color="#2AABEE"
         offset="0%"
         id="stop24940" /><stop
         stop-color="#229ED9"
         offset="100%"
         id="stop24942" /></linearGradient></defs><g
     inkscape:label="Layer 1"
     inkscape:groupmode="layer"
     id="layer1"><circle
       style="fill:#646464;fill-opacity:1;stroke:none;stroke-width:1;stroke-linecap:butt;stroke-linejoin:round;stroke-dasharray:none;stroke-opacity:1"
       id="path16534"
       cx="52.083332"
       cy="148.5"
       r="21.478369"
       inkscape:export-filename="logo-mail.png"
       inkscape:export-xdpi="150"
       inkscape:export-ydpi="150" /><g
       id="g17993"
       transform="translate(1.6251579,124.14779)"
       style="stroke:#dcdcdc;stroke-width:1.5;stroke-dasharray:none;stroke-opacity:1"><rect
         style="fill:none;stroke:#dcdcdc;stroke-width:1.5;stroke-dasharray:none;stroke-opacity:1"
         id="rect111"
         width="31.485582"
         height="21.276308"
         x="34.715382"
         y="13.714057"
         ry="2.5243077"
         rx="2.5243077" /><path
         style="fill:none;stroke:#dcdcdc;stroke-width:1.5;stroke-linecap:butt;stroke-linejoin:round;stroke-dasharray:none;stroke-opacity:1"
         d="M 65.487126,15.150253 52.269791,28.303227 c -1.003636,0.99875 -2.619599,0.99875 -3.623235,0 L 35.429221,15.150253"
         id="rect15645" /><path
         style="fill:none;stroke:#dcdcdc;stroke-width:1.5;stroke-linecap:butt;stroke-linejoin:round;stroke-dasharray:none;stroke-opacity:1"
         d="m 44.987043,24.661533 -9.562288,9.562288"
         id="path15724" /><path
         style="fill:none;stroke:#dcdcdc;stroke-width:1.5;stroke-linecap:butt;stroke-linejoin:round;stroke-dasharray:none;stroke-opacity:1"
         d="m 55.929304,24.661533 9.562288,9.562288"
         id="path15728" /></g><circle
       style="fill:#646464;fill-opacity:1;stroke:none;stroke-width:1;stroke-linecap:butt;stroke-linejoin:round;stroke-dasharray:none;stroke-opacity:1"
       id="circle24899"
       cx="157.91667"
       cy="148.5"
       r="21.478369"
       inkscape:export-filename="logo-phone.png"
       inkscape:export-xdpi="150"
       inkscape:export-ydpi="150" /><path
       style="fill:none;stroke:#dcdcdc;stroke-width:1.5;stroke-linejoin:round;stroke-dasharray:none;stroke-opacity:1"
       d="m 152.45645,145.38 0.80406,-0.80406 1.60717,-1.60717 c 0.77228,-0.77229 0.77228,-2.01575 0,-2.78804 l -3.97423,-3.97422 c -0.77228,-0.77229 -2.01575,-0.77229 -2.78803,0 l -1.60717,1.60717 c 0,0 -5.70168,5.35816 5.52245,16.58229 11.22413,11.22413 16.5823,5.52246 16.5823,5.52246 l 1.60717,-1.60718 c 0.77228,-0.77228 0.77228,-2.01575 0,-2.78803 l -3.97423,-3.97423 c -0.77228,-0.77228 -2.01575,-0.77228 -2.78803,0 l -1.60717,1.60718 -0.80407,0.80405 c -0.93387,0.93388 -5.07022,-3.51 -5.07022,-3.51 0,0 -4.44388,-4.13635 -3.51,-5.07022 z"
       id="path24159"
       sodipodi:nodetypes="scsssscccsssscscs" /><circle
       id="Oval"
       fill="url(#linearGradient-1)"
       cx="105.00001"
       cy="148.5"
       r="21.478369"
       style="fill:#646464;fill-rule:evenodd;stroke:none;stroke-width:0.264582;fill-opacity:1"
       inkscape:export-filename="logo-telegram.png"
       inkscape:export-xdpi="150"
       inkscape:export-ydpi="150" /><path
       d="m 93.243967,148.27328 c 6.26138,-2.72798 10.436613,-4.52644 12.525703,-5.39536 5.96477,-2.48096 7.2042,-2.91192 8.01204,-2.92615 0.17768,-0.003 0.57495,0.0409 0.83229,0.24971 0.21729,0.17632 0.27707,0.41449 0.30568,0.58166 0.0286,0.16717 0.0642,0.54798 0.0359,0.84553 -0.32323,3.39624 -1.72186,11.63801 -2.4334,15.44186 -0.30108,1.60955 -0.89391,2.14922 -1.46785,2.20204 -1.24729,0.11477 -2.19442,-0.8243 -3.40248,-1.6162 -1.89038,-1.23916 -2.95832,-2.01055 -4.79326,-3.21975 -2.12058,-1.39743 -0.74589,-2.16549 0.46262,-3.4207 0.31628,-0.3285 5.81186,-5.32716 5.91823,-5.78061 0.0133,-0.0567 0.0257,-0.26811 -0.0999,-0.37974 -0.12559,-0.11162 -0.31094,-0.0735 -0.4447,-0.0431 -0.1896,0.043 -3.2095,2.03907 -9.059701,5.98812 -0.857189,0.58861 -1.633604,0.87541 -2.329245,0.86038 -0.766888,-0.0166 -2.242074,-0.43361 -3.338722,-0.79009 -1.345085,-0.43723 -2.414132,-0.6684 -2.321041,-1.41096 0.04849,-0.38677 0.581105,-0.78232 1.597856,-1.18665 z"
       id="Path-3"
       fill="#ffffff"
       style="fill-rule:evenodd;stroke:none;stroke-width:0.264582;fill:#dcdcdc;fill-opacity:1" /></g></svg>
